<svg id="Layer_1" data-name="Layer 1" xmlns="http://www.w3.org/2000/svg" viewBox="0 0 413.92 472.84"><defs><style>.cls-1{fill:#3a89c9;}.cls-2{fill:#e6e6e5;}.cls-3{fill:#f3f3f3;}.cls-4{fill:#f26c4f;}</style></defs><title>shield-icon</title><path class="cls-1" d="M461.14,116.34,256.88,14.2,52.61,116.34C22.35,432.2,256.88,487,256.88,487S491.41,432.2,461.14,116.34Z" transform="translate(-49.91 -14.2)"/><path class="cls-2" d="M435,133.53,256.88,44.47,78.75,133.53C52.37,409,256.88,456.78,256.88,456.78S461.39,409,435,133.53Z" transform="translate(-49.91 -14.2)"/><path class="cls-3" d="M255.64,456.78S51.13,409,77.52,133.53L255.64,44.47Z" transform="translate(-49.91 -14.2)"/><path class="cls-4" d="M213.37,265.57a8.51,8.51,0,0,1-8.51-8.51V171.85c0-23.17,22.19-41.32,50.53-41.32H258c27.91,0,49,17.76,49,41.32v32.44a8.51,8.51,0,0,1-17,0V171.85c0-13.85-13.73-24.3-31.93-24.3h-2.66c-18.48,0-33.51,10.9-33.51,24.3v85.21A8.51,8.51,0,0,1,213.37,265.57Z" transform="translate(-49.91 -14.2)"/><path class="cls-4" d="M323.72,321.13c0,10.64-8.91,19.85-21.45,19.85H209.59c-12.53,0-23.27-9.22-23.27-19.85V242.5c0-10.63,10.74-19.11,23.27-19.11h92.68c12.54,0,21.45,8.47,21.45,19.11Z" transform="translate(-49.91 -14.2)"/><rect class="cls-3" x="195.14" y="240.83" width="24.59" height="24.59" rx="11.98" ry="11.98"/><path class="cls-3" d="M263,306.11a5.67,5.67,0,0,1-5.68,5.67h0a5.67,5.67,0,0,1-5.67-5.67V274a5.67,5.67,0,0,1,5.67-5.68h0A5.68,5.68,0,0,1,263,274Z" transform="translate(-49.91 -14.2)"/></svg>